<?xml version="1.0" encoding="UTF-8"?>
<svg width="512" height="512" viewBox="0 0 512 512" fill="none" xmlns="http://www.w3.org/2000/svg">
  <!-- 背景圆形 -->
  <circle cx="256" cy="256" r="256" fill="url(#paint0_linear)"/>
  
  <!-- 气泡效果 -->
  <circle cx="150" cy="170" r="30" fill="white" fill-opacity="0.25"/>
  <circle cx="120" cy="130" r="15" fill="white" fill-opacity="0.2"/>
  <circle cx="370" cy="150" r="25" fill="white" fill-opacity="0.15"/>
  <circle cx="400" cy="110" r="12" fill="white" fill-opacity="0.2"/>
  
  <!-- 字母M - 可爱风圆角版 -->
  <path d="M256 128C256 128 298 210 307 230C316 250 346 128 358 128C375.673 128 400 128 400 128L325 296C325 296 316 274 307 259C298 274 289 296 289 296L187 128C187 128 225.673 128 256 128Z" fill="white" stroke="white" stroke-width="8" stroke-linecap="round" stroke-linejoin="round"/>
  
  <!-- 光晕效果 -->
  <circle cx="256" cy="256" r="180" fill="url(#paint1_radial)" fill-opacity="0.3"/>
  
  <!-- 可爱的小装饰 -->
  <circle cx="256" cy="350" r="20" fill="white" fill-opacity="0.5"/>
  <circle cx="210" cy="350" r="12" fill="white" fill-opacity="0.4"/>
  <circle cx="302" cy="350" r="12" fill="white" fill-opacity="0.4"/>
  
  <!-- 渐变定义 -->
  <defs>
    <linearGradient id="paint0_linear" x1="0" y1="0" x2="512" y2="512" gradientUnits="userSpaceOnUse">
      <stop offset="0" stop-color="#FF80B5"/>
      <stop offset="1" stop-color="#9089FC"/>
    </linearGradient>
    <radialGradient id="paint1_radial" cx="0" cy="0" r="1" gradientUnits="userSpaceOnUse" gradientTransform="translate(256 216) rotate(90) scale(220)">
      <stop offset="0" stop-color="white" stop-opacity="0.6"/>
      <stop offset="1" stop-color="white" stop-opacity="0"/>
    </radialGradient>
  </defs>
</svg> 
